<?xml version="1.0" encoding="UTF-8" standalone="no"?>
<!-- Generator: Adobe Illustrator 18.0.0, SVG Export Plug-In . SVG Version: 6.00 Build 0)  -->

<svg
   xmlns:dc="http://purl.org/dc/elements/1.1/"
   xmlns:cc="http://creativecommons.org/ns#"
   xmlns:rdf="http://www.w3.org/1999/02/22-rdf-syntax-ns#"
   xmlns:svg="http://www.w3.org/2000/svg"
   xmlns="http://www.w3.org/2000/svg"
   xmlns:sodipodi="http://sodipodi.sourceforge.net/DTD/sodipodi-0.dtd"
   xmlns:inkscape="http://www.inkscape.org/namespaces/inkscape"
   version="1.1"
   id="Capa_1"
   x="0px"
   y="0px"
   viewBox="0 0 455.731 455.731"
   style="enable-background:new 0 0 455.731 455.731;"
   xml:space="preserve"
   sodipodi:docname="telegram.svg"
   inkscape:version="0.92.1 r15371"><metadata
     id="metadata8360"><rdf:RDF><cc:Work
         rdf:about=""><dc:format>image/svg+xml</dc:format><dc:type
           rdf:resource="http://purl.org/dc/dcmitype/StillImage" /><dc:title></dc:title></cc:Work></rdf:RDF></metadata><defs
     id="defs8358" /><sodipodi:namedview
     pagecolor="#ffffff"
     bordercolor="#666666"
     borderopacity="1"
     objecttolerance="10"
     gridtolerance="10"
     guidetolerance="10"
     inkscape:pageopacity="0"
     inkscape:pageshadow="2"
     inkscape:window-width="1302"
     inkscape:window-height="746"
     id="namedview8356"
     showgrid="false"
     inkscape:zoom="0.51784936"
     inkscape:cx="227.86549"
     inkscape:cy="150.62295"
     inkscape:window-x="-8"
     inkscape:window-y="-8"
     inkscape:window-maximized="1"
     inkscape:current-layer="Capa_1" /><g
     id="g8323"><rect
       x="0"
       y="0"
       style="fill:#61A8DE;"
       width="455.731"
       height="455.731"
       id="rect8319" /><path
       style="fill:#FFFFFF;"
       d="M358.844,100.6L54.091,219.359c-9.871,3.847-9.273,18.012,0.888,21.012l77.441,22.868l28.901,91.706   c3.019,9.579,15.158,12.483,22.185,5.308l40.039-40.882l78.56,57.665c9.614,7.057,23.306,1.814,25.747-9.859l52.031-248.76   C382.431,106.232,370.443,96.08,358.844,100.6z M320.636,155.806L179.08,280.984c-1.411,1.248-2.309,2.975-2.519,4.847   l-5.45,48.448c-0.178,1.58-2.389,1.789-2.861,0.271l-22.423-72.253c-1.027-3.308,0.312-6.892,3.255-8.717l167.163-103.676   C320.089,147.518,324.025,152.81,320.636,155.806z"
       id="path8321" /></g></svg>