<?xml version="1.0" encoding="UTF-8" standalone="no"?>
<svg
   xmlns:dc="http://purl.org/dc/elements/1.1/"
   xmlns:cc="http://creativecommons.org/ns#"
   xmlns:rdf="http://www.w3.org/1999/02/22-rdf-syntax-ns#"
   xmlns:svg="http://www.w3.org/2000/svg"
   xmlns="http://www.w3.org/2000/svg"
   xmlns:sodipodi="http://sodipodi.sourceforge.net/DTD/sodipodi-0.dtd"
   xmlns:inkscape="http://www.inkscape.org/namespaces/inkscape"
   version="1.1"
   width="2928.189"
   height="742.67719"
   id="svg3902"
   sodipodi:docname="logo 2.svg"
   viewBox="0 0 2928.189 742.67719"
   inkscape:version="0.92.1 r15371">
  <metadata
     id="metadata3908">
    <rdf:RDF>
      <cc:Work
         rdf:about="">
        <dc:format>image/svg+xml</dc:format>
        <dc:type
           rdf:resource="http://purl.org/dc/dcmitype/StillImage" />
        <dc:title></dc:title>
      </cc:Work>
    </rdf:RDF>
  </metadata>
  <defs
     id="defs3906" />
  <sodipodi:namedview
     pagecolor="#ffffff"
     bordercolor="#666666"
     borderopacity="1"
     objecttolerance="10"
     gridtolerance="10"
     guidetolerance="10"
     inkscape:pageopacity="0"
     inkscape:pageshadow="2"
     inkscape:window-width="1302"
     inkscape:window-height="746"
     id="namedview3904"
     showgrid="false"
     inkscape:zoom="0.5"
     inkscape:cx="1385.8331"
     inkscape:cy="445.86559"
     inkscape:window-x="-8"
     inkscape:window-y="-8"
     inkscape:window-maximized="1"
     inkscape:current-layer="Layer1000" />
  <g
     id="Layer1000">
    <path
       d="m 1369.2657,235.5823 c -1.781,5.5199 0.5496,4.0031 -2.4514,9.6301 -1.501,2.8143 -3.6046,6.5257 -4.942,9.5335 -1.3838,3.1127 -2.3544,6.8497 -3.6107,10.5611 -1.2201,3.6051 -1.8318,6.533 -4.1545,7.4151 1.2393,3.7488 -1.029,7.5013 -1.5023,12.4532 -0.1905,-0.1965 -0.4785,-0.8731 -0.531,-0.6265 -0.3679,1.7326 -0.5527,-3.6924 -1.1619,0.4533 h -94.6193 c -5.7048,0 -27.5443,-1.465 -30.263,1.1095 6.8221,-1.7428 108.5068,-0.6404 124.5402,-0.6404 l -6.8086,27.881 c -8.7777,31.9828 0.8314,26.9822 -38.1812,28.696 l -76.2163,5.4031 c -6.9174,1.1288 -11.6841,-0.8348 -13.8897,1.921 -0.1911,0.118 -0.4975,0.0556 -0.6004,0.3065 l -2.463,0.5938 c -6.2502,1.2348 -3.7849,-0.1272 -5.3235,6.9563 -2.5498,11.7368 -10.7405,34.9585 -11.24,44.7837 -2.6016,-0.8714 -0.5502,-1.2484 -1.3988,3.7213 -0.5123,2.9993 -1.4724,5.2155 -1.7269,8.4413 l 23.3719,-1.0707 101.5356,-6.2022 c 2.0021,0.6032 0.5394,-1.7742 1.6912,1.9528 l -0.6747,4.1556 c -0.7466,2.6671 -1.0168,3.2273 -1.7869,5.8708 -1.2586,4.3215 -2.1048,8.301 -3.2656,13.0261 -2.1302,8.6709 -5.0779,16.9495 -6.3703,25.5844 l -64.5967,5.5445 c -20.7822,3.2276 -43.5427,2.4778 -63.6503,5.9715 -2.124,2.9673 -9.8067,32.4026 -10.3158,37.0434 l 4.3945,0.4346 c 9.2021,0.5468 48.185,-4.7211 62.4218,-5.8436 l 60.5599,-5.9905 c -0.1409,6.6124 -5.142,20.3576 -7.0135,28.0301 l -6.0996,28.4292 0.6143,9.8076 c 2.1433,2.901 0.9459,2.558 2.039,6.158 0.01,-6.2597 -0.4408,-5.0672 1.578,-8.0725 0,13.176 6.8244,25.8939 13.1808,34.4781 3.3608,4.5385 0.9213,2.8431 5.9259,5.9448 5.0618,3.1374 8.5631,9.2282 22.3571,12.5972 26.5856,6.4936 61.463,4.1448 91.9681,4.1448 31.3985,0 62.7967,0 94.195,0 21.4619,0 47.9874,0.8144 60.0086,-23.756 3.4166,-6.9838 1.6078,-5.7442 5.0298,-5.7592 -0.1029,4.3211 -6.2646,24.5744 -6.1886,29.3 l 116.3968,0.0114 c 3.3545,-7.3072 5.6483,-22.2041 7.38,-30.2426 8.8696,-41.1704 19.6806,-84.6876 28.2435,-126.9816 5.2044,-25.708 13.451,-56.2844 17.9019,-80.9484 l 2.9676,-13.3469 c 0.6236,-1.6884 1.0398,-2.0668 1.3632,-2.5892 -0.6128,-1.9789 0.1466,-0.8405 -1.9964,-1.6112 l -257.1982,0.0133 c -2.8457,7.6017 -5.1333,20.2504 -7.2765,28.0775 -2.5033,9.1417 -4.4317,20.5364 -7.4733,28.9578 l 138.5646,0.1616 -4.3353,19.62 -3.6088,13.0076 c -0.6268,3.1187 0.6324,1.4491 -1.9585,2.4268 -2.1557,14.6928 -22.3549,84.901 -26.4841,106.66 -9.5119,2.9696 -106.1039,0.9085 -124.3519,0.9085 l 0.6831,-4.4311 c -1.3632,2.1847 -0.8138,4.9091 -3.3848,5.6194 -9.2577,0 -21.1808,1.2442 -28.3847,-1.6324 -7.3971,-2.954 -10.3505,-10.3669 -7.0382,-18.4953 0.3209,-6.4173 2.3159,-11.3981 3.9328,-17.5028 l 49.7242,-192.0687 c 1.2716,-5.7289 2.6623,-9.5854 4.0808,-15.437 2.5716,-10.6083 5.7642,-21.4115 8.1051,-31.4815 8.5116,-36.6177 6.3499,-33.5713 47.3456,-33.5713 79.9093,0 159.8188,0 239.728,0 1.2614,-5.2282 2.2683,-9.7399 3.3528,-15.4222 l 9.9828,-42.5106 c -1.2847,-2.5132 -0.8008,-2.0137 -8.8075,-1.8859 -76.8283,1.2251 -162.3677,0.0116 -239.8751,0.0116 -26.2386,0 -57.9484,1.5993 -83.509,-0.2197 -8.4648,-0.5235 -20.0639,3.1255 -26.6238,5.3635 -18.9235,6.4562 -19.7665,11.4372 -29.1574,16.9021 l -17.7228,17.4748 c -0.1378,0.1851 -0.3569,0.4237 -0.493,0.6086 -0.1338,0.1822 -0.3299,0.4342 -0.4612,0.6176 z"
       style="fill:#11c44d;fill-rule:evenodd"
       id="path3799"
       inkscape:connector-curvature="0" />
    <path
       d="m 2057.8827,437.6999 0.9434,2.4392 -135.5017,0.1032 c -1.2895,-1.1316 -1.6316,0.2942 -0.7815,-1.4579 l 90.1227,-132.5131 c 6.4692,-9.2515 9.6018,-15.7921 12.5753,-17.8081 2.9132,4.9164 5.7935,23.4986 7.3645,30.2091 0.7446,7.6377 3.7703,17.7562 5.271,25.4191 1.2946,6.611 4.7191,17.3889 4.8994,25.2485 2.5109,7.831 3.7638,21.8293 6.3714,27.1326 -1.5891,1.2535 0.096,0.1752 -2.1949,1.1583 l -2.9695,1.269 4.6953,-0.4373 c 0.8759,6.3127 2.7771,13.0495 4.1233,19.6338 l 2.986,14.2994 c 0.2763,1.2246 0.2429,1.5803 0.6755,2.7153 z m -22.8985,-243.9198 c -3.7624,2.7734 -6.4108,7.897 -9.6316,12.3786 -1.6324,2.2717 -2.9508,4.1456 -4.5436,6.3864 l -22.2455,32.5134 c -1.7807,2.4012 -2.7567,3.8778 -4.2383,6.6552 -4.8456,9.0839 -28.7779,37.5812 -30.1814,45.3161 l -111.2397,7.7578 c -9.8926,1.1166 -18.9876,0.3861 -29.2512,1.9437 l -278.4992,19.0109 c -7.1716,0.8881 -25.3241,0.1462 -27.8138,2.6586 -6.7005,5.0763 -3.9297,-8.2746 -9.5859,13.0555 -1.1084,4.1794 -3.337,14.4488 -4.8028,17.6703 l 290.88,0.1973 -3.7408,14.9415 20.6736,-0.8981 105.152,-7.4092 c -1.5281,3.7381 -4.5062,7.6054 -7.1801,11.5144 -2.7442,4.0118 -5.4074,7.7771 -7.9832,11.6779 l -12.153,17.5478 c -2.4713,3.9422 -1.5698,4.0853 -5.7439,5.3878 0.288,3.2131 -4.672,9.1344 -7.0903,12.4121 -8.342,11.3071 -16.9344,26.2848 -26.0087,37.5653 -5.8518,7.2748 -13.1972,20.1671 -17.2026,25.4761 -12.0013,15.9058 -19.9168,29.9778 -30.6093,43.9174 -1.8284,2.3834 -2.7196,4.1755 -4.3047,6.5852 -1.5211,2.3122 -2.8126,4.0351 -4.1684,5.8048 l -4.197,6.7141 c -5.1964,8.8535 -18.14,24.7326 -22.1933,31.4541 l -20.3329,30.0541 c -0.8708,1.3614 -0.4609,0.6253 -1.0409,1.7762 1.5583,3.6326 6.6433,2.1378 11.1311,2.1242 l 42.7179,-2e-4 15.2453,-21.2738 c 1.3906,-2.5256 0.6086,-1.9179 2.2376,-4.2976 2.1152,-3.0897 0.8164,-0.6571 3.1051,-3.6156 l 61.6445,-91.6305 188.1082,-0.1468 4.6885,28.1696 0.5037,12.5926 12.9093,79.5413 c 10.6744,1.6279 121.9952,1.1035 140.0782,0.6004 0.058,-5.2506 -8.4418,-43.1229 -10.1664,-52.0206 l -68.8261,-344.1112 c -1.6778,-8.3299 -3.1155,-19.0046 -5.4558,-27.129 -11.0152,-1.3981 -74.5588,-0.3464 -95.4411,-0.3773 -7.9903,-0.0119 -9.3694,-1.1197 -13.2035,1.5092 z"
       style="fill:#11c44d;fill-rule:evenodd"
       id="path3801"
       inkscape:connector-curvature="0" />
    <path
       d="m 2394.6301,198.6812 c -2.3281,3.1269 -9.9677,36.3991 -10.0519,41.7611 l -0.2435,4.5198 c 13.5391,0.0522 196.8642,-1.231 204.5917,0.6619 l -14.8683,17.3415 c -2.1013,2.611 -0.2954,1.2297 -3.2442,2.6757 -0.8351,2.8734 -19.2045,22.3687 -19.7555,22.6264 h -178.204 c 1.1803,-7.3114 3.526,-12.0688 4.0019,-18.997 l -21.1036,0.7722 c -9.1298,-0.5454 -75.8971,4.5235 -93.992,5.8878 -5.5934,0.4218 -54.1219,1.7283 -57.282,4.4434 l -6.8321,1.4275 0.5894,7.0588 c 0.024,0.1468 0.1443,0.43 0.1783,0.5735 l 0.5142,1.2747 c 0.049,0.1706 0.159,0.5091 0.2032,0.6795 l 4.6658,18.5473 c 2.3284,10.9007 3.6743,24.1263 7.0487,34.6482 l 7.1804,0.8926 c 13.2344,0.8501 25.136,-1.9023 38.3134,-1.9964 3.8744,-0.0275 13.8588,-0.5944 18.3753,-1.1078 l 27.6032,-1.802 c 3.312,-0.1752 5.0148,-0.9363 8.6953,-1.0088 23.9181,-0.4717 56.537,-4.8002 74.4774,-4.93 6.7159,-0.0488 11.7346,-0.7492 18.7407,-0.9448 11.1745,-0.3116 26.7747,-2.5957 38.1872,-3.1927 12.7829,-0.6687 24.7145,-1.0043 37.2966,-1.9406 l 36.7549,-2.7306 -31.3359,36.6542 c -5.165,5.4346 -58.4915,63.546 -64.6829,73.3539 -3.8605,6.1154 -2.9923,-0.6166 -8.3441,9.1661 l -75.5507,85.4277 c -4.445,3.9223 -3.312,1.5491 -6.1837,6.9823 l -32.1923,36.7109 c -3.2933,3.3123 -5.1137,6.0061 -8.3505,9.2271 -3.0799,3.0645 -5.3465,6.0766 -8.3821,9.2233 -1.6843,1.7462 -2.2586,2.7131 -3.9614,4.7135 -12.6031,14.8028 -9.8289,8.8903 -9.8289,34.0736 l -2.7856,-5.1344 c 0,0.1709 0.022,0.2746 0.032,0.5113 0.012,0.2662 0.039,0.4641 0.058,0.5732 0.023,0.1321 0.079,0.5162 0.1114,0.6888 0.1077,0.5715 0.6361,2.8103 0.786,3.5382 0.5261,2.5555 0.6902,5.5659 1.059,6.6906 2.9163,-5.0473 1.6444,-20.2218 1.2666,-27.5065 9.9895,1.7317 172.8447,0.5621 187.4494,0.5621 62.4317,0 124.8633,0 187.2947,0 2.7774,-1.0128 1.0094,0.005 2.7502,-1.3144 0.7191,-4.5278 2.4363,-8.6485 3.6717,-13.2463 1.2452,-4.635 2.4879,-7.5425 4.0385,-12.1434 2.6731,-7.9313 5.8357,-17.3582 7.715,-24.7802 l -212.3469,-0.5147 c -1.8429,-1.1044 -3.2415,1.4284 2.1495,-5.3555 11.4446,-14.402 39.9945,-43.4713 51.7963,-57.7684 2.3392,-2.8341 2.6249,-3.4081 5.0786,-5.9406 1.5916,-1.6424 2.4071,-3.1269 3.9841,-4.8679 1.7863,-1.9721 3.8072,-3.4296 5.4124,-5.4283 2.8253,-3.5181 0.7138,-3.0255 4.6443,-6.3063 l 9.8138,-11.0072 c 2.0588,-2.1682 2.8678,-3.7735 4.9726,-5.9182 l 91.5758,-103.4271 c 3.9736,-3.4362 9.9875,-12.2624 15.5284,-17.3872 5.5245,-5.1094 1.8641,-3.3069 7.8582,-8.5657 l 52.0166,-59.6605 c 3.7239,-3.6201 2.3743,-3.617 7.9141,-8.5218 l 56.0231,-63.347 c 1.8927,-2.9001 0.5357,-0.6477 1.7934,-3.3162 l -372.3638,-3e-4 c -1.0783,3.2043 -0.071,3.6774 -2.3259,6.2201 z"
       style="fill:#11c44d;fill-rule:evenodd"
       id="path3803"
       inkscape:connector-curvature="0" />
    <path
       d="m 619.8494,437.2464 57.6207,-85.0119 c 5.0777,-9.2035 20.7065,-29.2312 27.2268,-39.7179 3.9384,-6.3349 12.7468,-20.5407 16.9489,-24.2612 3.4574,12.8446 5.1307,23.9477 8.1252,37.796 0.8737,8.1074 4.9748,18.0953 5.0973,26.3104 0.1392,6.9259 3.1045,17.0498 4.6179,24.3014 2.5058,5.7404 5.298,22.0977 7.0149,30.5507 1.04,5.1199 2.2241,9.6842 3.2488,15.1072 1.0488,5.5485 2.4829,9.2486 2.7964,14.5429 l 1.2571,3.3913 -135.8546,-0.1593 z M 594.705,390.956 547.5889,459.8039 c -3.1779,-1.5831 -31.5051,1.4587 -37.3051,2.0047 l -39.2394,2.4593 c -3.0277,1.5871 -3.6071,0.8113 -7.4829,1.5027 -3.49,10.1281 -5.2118,20.069 -7.8667,30.3261 -2.3791,9.1908 -6.69,21.8778 -7.8503,31.1803 l 5.0556,-0.1018 c 3.7364,-0.7529 10.158,-0.9054 13.8062,-1.3266 11.6044,-1.3399 33.0942,-1.4278 39.5804,-4.0771 -4.3401,3.6476 -34.4466,50.6217 -42.946,61.4217 l -21.5538,31.4957 c 1.1378,2.5022 48.1507,1.5276 54.3742,1.2615 l 40.6148,-60.4868 c 9.9,-13.0751 29.952,-46.088 40.1629,-60.3669 h 188.877 c 0.6228,5.2574 1.6708,10.5012 2.685,16.2807 0.614,4.1777 0.8464,7.4886 1.5613,11.8664 0.697,4.269 1.7907,7.9648 1.751,13.8065 l 1.5312,12.8925 c 2.1314,11.6221 4.2282,23.8524 5.4709,33.8451 0.7073,5.6869 1.4913,11.0461 2.4783,17.1196 0.5922,3.6456 2.4761,12.5285 2.3236,14.646 l 140.4768,0.5292 c 0.2869,-4.2074 -70.5699,-354.573 -78.584,-394.7281 -0.8745,-4.3815 -1.4599,-8.4234 -2.3788,-12.7221 -1.1387,-5.3272 -2.4551,-9.2398 -2.5234,-14.3102 -2.0503,-2.7796 -0.0128,-0.4334 -2.7159,-2.0591 l -107.3469,0.4448 c -6.3114,7.2635 -11.8738,17.3976 -17.405,25.3531 -18.735,26.9455 -47.7128,71.5563 -65.7131,95.3611 l -2.1067,3.3574 c -10.6849,17.7826 -37.7725,53.8597 -50.6151,74.1764 z"
       style="fill:#ed1e1e;fill-rule:evenodd"
       id="path3805"
       inkscape:connector-curvature="0" />
    <path
       d="m 235.597,192.9555 c -2.6555,9.0711 -3.5614,16.3743 -6.0259,25.6957 -1.6687,6.3125 -5.4776,21.0337 -5.6999,26.9144 l 0.658,1.3011 c 19.0647,1.4125 42.8439,0.2092 62.4316,0.2092 10.9582,0 54.7943,-1.3305 62.0589,0.7526 l -3.8596,14.3467 c -0.6942,4.7262 -2.077,8.7872 -2.9863,13.1531 -0.5848,2.8088 -0.7382,3.9759 -1.2958,6.3105 -0.8064,3.3786 -0.841,3.2629 -2.3694,5.4226 -5.4579,22.0292 -9.4391,39.5802 -14.8159,60.8783 -2.4661,9.7688 -4.9226,20.757 -7.3414,30.6496 -2.2697,9.2815 -6.3533,22.8836 -7.3724,31.4683 l -15.7762,65.2932 c -5.1724,4.2486 -2.5781,1.2594 -3.9455,1.5678 l -167.6359,11.943 c -2.7947,0.182 -5.8189,-0.2166 -8.6318,0.1051 l -82.5284,5.9656 -0.1026,65.3706 184.2658,-14.6444 c 9.5222,-0.2418 21.0405,-1.0803 30.714,-2.2249 l 32.0666,-2.6617 -15.4561,66.4106 c -1.8066,5.7575 0.0606,1.4205 -1.9143,3.604 l -1.3246,4.2055 c 4.7098,1.7994 116.2029,2.5333 123.355,0.6698 l 24.1418,-90.2928 c 10.5001,-41.1968 23.5052,-96.452 35.0053,-136.8879 l 23.6109,-91.3465 c 3.3044,-14.2832 7.371,-32.2392 12.2443,-45.697 l 127.6203,-0.2917 c 1.9573,-7.696 12.0977,-55.152 14.1976,-57.9662 -1.3904,-2.7856 1.9094,-1.4811 -4.3509,-2.0651 l -187.3763,0.146 c -56.225,0 -112.4499,0 -168.6748,0 -6.9355,0 -18.2721,-1.5466 -22.8861,1.6949 z"
       style="fill:#ed1e1e;fill-rule:evenodd"
       id="path3807"
       inkscape:connector-curvature="0" />
    <path
       d="m 950.8499,193.2809 c -1.5044,2.4066 -11.8024,48.3219 -11.9467,51.9537 l 0.8504,1.8394 125.5247,-0.006 -5.3099,18.8025 c -0.3212,4.1984 -3.5728,17.5453 -4.9481,21.4535 -2.2,3.1303 -8.1105,30.7284 -9.7019,37.3081 -1.6149,6.6773 -2.9942,11.899 -4.5369,18.2838 l -3.5223,14.3733 c -1.0207,3.1641 1.3161,2.7253 -8.5377,3.5748 l 8.0978,0.1018 -16.6017,68.9525 c -0.1451,-3.7891 1.3782,-2.744 -3.683,-3.1303 l -92.973,7.0769 c -0.165,4.7534 3.3964,20.9002 4.4997,26.9575 1.3864,7.6136 4.3948,18.2177 4.9462,26.4725 l 6.8607,0.028 c 2.0488,-0.7613 62.1586,-5.6358 67.2726,-5.6358 -0.9105,8.1774 -3.8744,16.198 -5.4147,23.6534 -1.3048,6.315 -3.926,18.7594 -6.2059,23.8663 l -15.554,63.7696 c -1.3754,5.3394 -5.0967,18.008 -4.9246,21.9989 3.8752,2.6356 61.7553,1.0961 70.9554,1.0961 63.4538,0 50.4661,4.4317 56.1022,-16.5858 5.2617,-19.6205 9.4184,-38.2586 14.6214,-57.5144 2.7791,-10.2863 5.0275,-18.8481 7.4565,-28.8657 l 44.86,-174.2372 c 5.2653,-19.9074 18.1712,-75.2128 23.0975,-87.5874 l 127.5131,-0.131 c 3.1802,-9.3195 11.0319,-54.0604 14.5698,-58.3313 -2.5891,-3.3055 -39.8471,-1.5577 -46.1616,-1.5577 H 953.9926 c -2.2561,1.0202 -1.5749,0.4292 -3.1427,2.0203 z"
       style="fill:#ed1e1e;fill-rule:evenodd"
       id="path3809"
       inkscape:connector-curvature="0" />
    <path
       d="m 1779.893,193.1451 21.9753,-1.8896 c -1.8737,6.6634 -3.6572,14.0491 -4.663,21.2208 -0.3053,2.1778 0.1228,0.7109 -0.447,2.9508 l -8.2165,36.2892 c -0.11,0.3591 -0.6146,1.2894 -0.7237,1.6117 l -0.8184,5.7833 c -1.0046,3.5872 -2.0724,9.4688 -4.9677,10.1866 -7.3961,1.8334 -222.7048,-1.683 -268.408,-0.0539 -7.5838,0.2704 -10.7439,3.2289 -12.7197,8.1261 l -6.362,24.3932 c -0.4128,2.7015 -0.017,2.3247 -0.5276,4.8799 l -15.6676,59.8147 c -0.1026,0.3348 -0.4482,1.2676 -0.536,1.5775 l -21.9425,85.4305 c -0.084,0.3053 -0.1499,0.5939 -0.2293,0.8978 -0.079,0.3013 -0.1414,0.5972 -0.2163,0.8932 l -1.8399,7.2833 c -0.066,0.2903 -0.1341,0.6032 -0.2002,0.904 l -11.5064,46.3172 c -0.067,0.2968 -0.1539,0.5879 -0.2265,0.8847 -0.072,0.2931 -0.1519,0.5825 -0.227,0.8722 l -8.4237,31.8079 c -0.078,0.29 -0.1412,0.5765 -0.2183,0.8651 -1.4278,5.3382 -2.1342,11.0917 -4.5278,16.1802 -12.524,-1.0242 -13.8934,-8.0337 -14.6123,-19.2323 -3.3123,8.1284 -0.3589,15.5413 7.0382,18.4953 7.2039,2.8766 19.127,1.6324 28.3847,1.6324 2.571,-0.7103 2.0216,-3.4347 3.3848,-5.6194 2.5061,-14.661 7.3163,-28.9454 10.8312,-43.0925 1.9483,-7.841 3.4461,-14.2818 5.4196,-21.9878 1.0587,-4.1335 2.2691,-6.5702 2.8505,-11.0974 0.6415,-4.9941 -0.923,-2.4678 6.2028,-4.8058 l -4.8039,-0.3442 c 2.243,-6.3102 3.496,-15.94 5.739,-22.0388 l 28.6892,0.2705 v 17.3228 l -5.0859,2.3394 5.5607,-0.3668 v -19.5778 l 94.7497,0.241 c 2.5909,-0.9777 1.3317,0.6919 1.9585,-2.4268 l 3.6088,-13.0076 -2.5935,-1.0667 c -2.8017,0.6324 0.7818,0.0488 -2.0128,0.3308 l -132.5929,-0.0388 c -0.3951,-0.688 -0.7775,-0.7693 -1.2469,-2.4826 -0.627,-2.2873 0.4765,-1.5477 1.7181,-6.0083 1.0292,-3.6969 1.4224,-6.1021 2.3822,-9.5527 l 131.8997,0.0323 c 4.0043,0.0612 4.3385,0.415 6.7814,-0.834 l -138.5646,-0.1616 c 3.0416,-8.4214 4.97,-19.8161 7.4733,-28.9578 2.1432,-7.8271 4.4308,-20.4758 7.2765,-28.0775 l 257.1982,-0.0133 c 2.143,0.7707 1.3836,-0.3677 1.9964,1.6112 3.1796,-3.3245 18.1222,-1.5902 22.9884,-1.5752 -3.1924,10.6982 -5.2911,21.6657 -8.392,33.3941 -11.05,41.7963 -22.3117,91.7895 -32.9575,135.1919 l -25.6544,102.9022 c -2.9268,1.8768 -278.2931,0.519 -301.9023,0.519 -28.8901,0 -61.5228,4.619 -83.0752,-7.0518 -1.8374,-0.9949 -2.9679,-1.8603 -4.894,-2.8536 -8.5998,-4.4342 -1.9196,0.2736 -7.85,-5.1585 -4.5507,-4.1683 -8.1862,-6.8479 -10.8584,-12.1949 l -8.9303,-17.5011 c -1.9445,-3.6627 -0.9533,-3.0135 -1.9097,-7.7857 -1.4612,-7.2912 0.2302,-3.9013 -4.0541,-3.6311 0.2305,-0.2826 1.5339,-1.7524 1.6713,-1.9744 0.1239,-0.2001 0.4655,-0.5533 0.5865,-0.7925 1.2124,-2.397 -0.9655,-7.102 0.885,-12.4263 l -0.6143,-9.8076 c -1.7986,17.6891 -9.2948,26.5851 2.7488,52.5518 2.7051,5.8326 2.4157,8.3115 6.3621,13.3563 9.0966,11.6283 7.8298,10.9307 20.2759,21.3851 8.8302,7.4169 14.3229,10.1002 26.826,13.8368 19.8331,5.9272 54.7517,3.0325 79.2598,3.0325 h 410.7339 c 3.5104,-1.6631 4.1797,-4.161 6.2422,-7.1912 1.87,-2.7476 3.0325,-4.4929 4.8084,-7.2261 l 30.1592,-45.4195 c 5.6038,-9.8751 13.3004,-18.9182 20.3751,-30.0892 l 9.8725,-15.2377 c 2.8429,-4.0688 8.1043,-10.7674 9.2634,-14.8447 l 165.2394,0.502 -0.5037,-12.5926 c -1.6158,-2.2944 -1.004,-1.4678 -1.2413,-5.1767 l -178.4976,0.2983 c -2.8324,0.5195 -18.307,23.1647 -20.952,27.0479 l -9.1894,14.6761 c -0.1315,0.2225 -0.275,0.5156 -0.4192,0.7304 -2.0143,3.0045 -1.8341,0.6239 -4.7367,6.2672 l -0.7983,1.5587 c -0.1423,0.2469 -0.2877,0.5281 -0.4393,0.7668 -2.7397,4.3075 -2.7049,2.1438 -4.6276,5.0715 -1.8765,2.8576 -0.5448,1.9865 -1.8326,3.7479 l -6.4573,8.8594 c -3.9215,6.2209 -0.6089,-2.0585 -4.7115,7.0115 -1.999,4.4198 -3.979,3.7673 -7.0376,9.7169 -5.083,9.8873 -2.0466,0.2917 -7.7575,11.7683 -3.3217,6.6753 -3.4943,0.762 -8.1522,11.3851 -1.1276,2.5719 -3.7808,4.9028 -5.0357,5.3847 -12.3089,0 -72.654,1.5571 -78.7343,-0.7897 -2.8318,4.2423 -9.849,14.9828 -13.1309,17.8404 0.2644,-6.3054 16.1189,-65.5135 18.0328,-73.3961 2.7672,-11.3973 6.0789,-25.2266 9.1937,-36.8824 1.2189,-4.5612 9.572,-32.478 8.0376,-36.3277 l 7.5144,-24.7351 c 1.7869,-5.8241 5.8504,-18.3441 4.2726,-23.4578 l 10.2107,-33.9248 5.5502,-1.1971 -4.7622,0.0695 c 1.2019,-6.9174 3.5241,-14.4227 5.298,-21.7483 1.8037,-7.448 3.5586,-15.4233 5.6644,-22.2582 4.0525,-0.2942 18.6262,-1.0749 20.9169,-2.1141 l -20.6736,0.8981 3.7408,-14.9415 -290.88,-0.1973 c 1.4658,-3.2215 3.6944,-13.4909 4.8028,-17.6703 5.6562,-21.3301 2.8854,-7.9792 9.5859,-13.0555 l -6.3093,-0.3373 c 4.9623,-9.2384 7.0885,-36.5259 12.2904,-40.1454 1.0429,-0.7254 5.5667,-2.452 6.9256,-2.6164 l 272.6039,-0.0286 4.6698,-24.179 c 0.033,-0.1278 0.1616,-0.4119 0.195,-0.5383 l 0.7971,-3.5646 c 0.065,-0.2398 0.3663,-0.9201 0.4323,-1.1698 l 3.8223,-11.5217 c 0.9317,-3.2783 1.5355,-3.6224 0.17,-6.6268 2.1246,-1.3167 2.1388,-0.7799 2.6655,-8.1448 l 0.8396,-1.4695 c 0.5289,-4.0606 5.2543,-17.6729 6.0182,-25.2992 0.4887,-4.8785 1.5355,-2.1719 3.3877,-12.4844 -16.1921,0 -372.3335,-0.9887 -378.1466,0.7761 25.5606,1.819 57.2704,0.2197 83.509,0.2197 77.5074,0 163.0468,1.2135 239.8751,-0.0116 8.0067,-0.1278 7.5228,-0.6273 8.8075,1.8859 z"
       style="fill:#000000;fill-rule:evenodd"
       id="path3813"
       inkscape:connector-curvature="0" />
    <path
       d="m 2034.9842,193.7801 c 3.8341,-2.6289 5.2132,-1.5211 13.2035,-1.5092 20.8823,0.0309 84.4259,-1.0208 95.4411,0.3773 l 17.2318,-0.4266 21.414,109.6186 c 3.985,18.242 6.8451,36.4901 10.772,54.9748 l 10.7736,54.9757 c 4.1185,26.7837 15.5333,80.5289 21.4915,110.0421 6.419,31.795 14.303,80.6884 21.5557,110.4559 h -155.0735 l -0.9403,-2.0166 c -0.034,8.4405 2.9628,16.8979 3.3361,25.0016 h 591.6586 l 25.0013,-96.9222 -192.6198,0.1168 c 2.0556,-4.9822 23.0831,-27.9987 26.8245,-32.019 l 48.2564,-53.6142 c 3.3849,-3.5377 2.0841,-4.4283 6.0954,-8.1491 l 41.3336,-46.2736 c 6.6515,-8.5762 32.4499,-34.9812 38.0512,-43.018 1.7141,-2.4596 0.8206,-1.2966 3.181,-3.3747 4.7007,-4.1388 3.4699,-4.8038 6.7309,-8.6193 l 34.2638,-38.0024 c 13.8727,-16.9185 11.8304,-14.9709 21.0155,-15.8921 l -5.6778,-0.5165 c 1.4354,-3.9909 18.7381,-21.3012 22.8926,-26.5192 l 34.5827,-39.8316 c 1.0723,-0.9386 1.2812,-0.896 2.4015,-1.982 l 1.7952,-2.194 c 1.944,-4.5233 28.7968,-32.273 35.6442,-40.2687 l 4.7775,-6.9497 -67.8776,0.0513 c 2.5881,2.1246 22.0717,0.9516 25.6414,0.9516 -2.0245,4.7662 -21.4126,26.6638 -25.0608,29.9046 -3.0161,2.6794 -1.5265,3.178 -4.5207,6.4404 -3.1998,3.486 -6.8454,7.1467 -9.794,11.0361 -9.815,12.9469 -42.5993,47.7125 -55.2626,63.0082 -2.4023,2.9018 -1.1349,2.9364 -3.8928,5.9604 -3.3928,3.7196 -7.4324,7.649 -10.4167,11.5073 l -132.8196,153.1281 c -11.9795,17.3245 -64.7209,72.4839 -73.3768,85.6508 l -34.2592,0.3963 212.3469,0.5147 24.1886,-0.6236 -7.1246,24.8565 c -2.5511,7.8976 -4.5946,15.1188 -7.1331,23.3115 -2.6569,8.574 -5.3594,15.1628 -7.2657,23.5194 -1.8014,7.8959 -2.1081,5.4314 -25.2216,5.4314 h -369.5799 l -0.1494,-24.1942 376.8605,-2.1311 c -1.7408,1.3198 0.027,0.3016 -2.7502,1.3144 -62.4314,0 -124.863,0 -187.2947,0 -14.6047,0 -177.4599,1.1696 -187.4494,-0.5621 0.3778,7.2847 1.6497,22.4592 -1.2666,27.5065 -0.3688,-1.1247 -0.5329,-4.1351 -1.059,-6.6906 -0.1499,-0.7279 -0.6783,-2.9667 -0.786,-3.5382 -0.033,-0.1726 -0.088,-0.5567 -0.1114,-0.6888 -0.019,-0.1091 -0.046,-0.307 -0.058,-0.5732 -0.01,-0.2367 -0.037,-0.3404 -0.032,-0.5113 l -36.5204,-189.7251 c -5.5338,-28.4162 -12.8174,-62.0938 -17.2454,-90.2421 l 6.9199,-0.7773 -7.1804,-0.8926 c -3.3744,-10.5219 -4.7203,-23.7475 -7.0487,-34.6482 l -4.6658,-18.5473 c -0.044,-0.1704 -0.1545,-0.5089 -0.2032,-0.6795 l -0.5142,-1.2747 c -0.034,-0.1435 -0.1545,-0.4267 -0.1783,-0.5735 l -0.5894,-7.0588 6.8321,-1.4275 h -6.4718 c -0.6369,-6.7831 -2.84,-15.6589 -4.3568,-22.7651 L 2180.85,191.3607 2036.9546,191.228 Z"
       style="fill:#000000;fill-rule:evenodd"
       id="path3815"
       inkscape:connector-curvature="0" />
    <path
       d="m 260.0345,610.7865 c 1.9749,-2.1835 0.1077,2.1535 1.9143,-3.604 l 15.4561,-66.4106 -32.0666,2.6617 c -9.6735,1.1446 -21.1918,1.9831 -30.714,2.2249 l -184.2658,14.6444 0.1026,-65.3706 82.5284,-5.9656 c 2.8129,-0.3217 5.8371,0.0769 8.6318,-0.1051 l 167.6359,-11.943 c 1.3674,-0.3084 -1.2269,2.6808 3.9455,-1.5678 l 15.7762,-65.2932 c -23.2157,0.2798 -47.0749,4.7627 -70.2431,4.839 -4.2519,0.0142 -12.7301,0.6103 -17.5427,1.0542 -26.0677,2.4043 -66.8427,4.2182 -87.6569,6.8978 -3.9481,0.5083 -13.8884,1.1115 -17.3832,1.1911 l -86.6166,6.2065 0.3354,197.0459 116.4968,-12.0739 c 33.7584,-4.8742 81.5888,-8.2049 115.666,-12.5941 z"
       style="fill:#11c44d;fill-rule:evenodd"
       id="path3817"
       inkscape:connector-curvature="0" />
    <path
       d="m 950.8499,193.2809 c 1.5678,-1.5911 0.8866,-1.0001 3.1427,-2.0203 h 334.0633 c 6.3145,0 43.5725,-1.7478 46.1616,1.5577 l 20.6513,-1.5455 c -2.6053,10.9755 -15.7502,72.491 -18.6199,78.018 l -129.3826,0.007 -89.0374,340.4786 c -2.1469,6.9497 -3.6692,15.3848 -5.6129,22.5085 l -141.8635,0.4363 c -1.8419,6.4244 -2.897,13.7134 -5.3124,19.2608 -0.347,-9.3954 -21.93,-107.1215 -23.1216,-120.7709 l 3.5606,-0.0706 -3.7877,-0.8303 -7.8466,-42.0417 c 3.9912,0 3.1748,0.4991 6.0234,-0.946 l -6.8607,-0.028 c -0.5514,-8.2548 -3.5598,-18.8589 -4.9462,-26.4725 -1.1033,-6.0573 -4.6647,-22.2041 -4.4997,-26.9575 -2.1402,-4.4674 -8.388,-38.431 -9.7886,-47.2847 -0.7642,-4.8302 -2.7499,-11.2572 -2.8233,-16.4509 l 5.8152,-0.8538 h -6.9148 l -16.8548,-89.1019 c -1.3938,-8.1862 -2.6719,-14.5523 -4.5419,-23.2937 l -12.6077,-65.6028 c -24.7,0 -49.3894,0.1964 -74.0985,0.1964 -4.8166,0 -67.0878,-1.5225 -71.2023,1.2348 l 107.3469,-0.4448 c 2.7031,1.6257 0.6656,-0.7205 2.7159,2.0591 1.9502,-2.0639 0.8268,-2.1948 7.1047,-2.1574 2.7125,0.0161 5.4275,0.0822 8.1539,0.0822 l 32.199,164.7635 c 1.7867,8.9555 3.5821,18.4099 5.4317,27.7642 l 43.0172,220.0306 c 1.7986,8.7426 2.859,19.5128 5.3436,27.4782 l -153.8603,0.007 0.2262,6.8694 c -0.673,5.9148 1.1313,9.9434 1.6254,16.1099 l 339.9981,0.003 c 0.2339,-1.9811 0.3184,-3.4248 0.5982,-5.3666 0.8611,-5.9825 -2.1311,4.2775 1.0808,-2.5083 1.4145,-2.9877 1.6815,-5.7631 2.6487,-9.4808 l 28.9865,-112.0819 c 1.5389,-5.7013 3.9563,-12.7732 4.8045,-18.3736 l 5.0884,-0.9765 -4.3945,-0.4346 c 0.5091,-4.6408 8.1918,-34.0761 10.3158,-37.0434 l -0.1292,-5.0998 c -1.683,-0.6018 -0.4045,0.7673 0.3075,-0.87 3.5309,-8.1201 9.2101,-37.849 12.8308,-47.6248 l 24.1086,-2.3089 -23.3719,1.0707 c 0.2545,-3.2258 1.2146,-5.442 1.7269,-8.4413 0.8486,-4.9697 -1.2028,-4.5927 1.3988,-3.7213 0.4995,-9.8252 8.6902,-33.0469 11.24,-44.7837 1.5386,-7.0835 -0.9267,-5.7215 5.3235,-6.9563 l 2.463,-0.5938 c 0.1029,-0.2509 0.4093,-0.1885 0.6004,-0.3065 h -6.467 l 4.2931,-16.4145 c 0.9348,-4.2084 2.8794,-13.8615 3.511,-15.9288 0.058,-0.1896 0.3254,-0.6352 0.4895,-1.0403 3.4024,-8.4098 6.3839,-26.4058 8.729,-29.8771 2.7187,-2.5745 24.5582,-1.1095 30.263,-1.1095 h 94.6193 c 0.6092,-4.1457 0.794,1.2793 1.1619,-0.4533 0.053,-0.2466 0.3405,0.43 0.531,0.6265 0.4733,-4.9519 2.7416,-8.7044 1.5023,-12.4532 2.3227,-0.8821 2.9344,-3.81 4.1545,-7.4151 1.2563,-3.7114 2.2269,-7.4484 3.6107,-10.5611 1.3374,-3.0078 3.441,-6.7192 4.942,-9.5335 3.001,-5.627 0.6704,-4.1102 2.4514,-9.6301 1.8669,-6.3476 3.1376,-15.4029 4.7469,-22.7996 1.3303,-6.1138 4.0371,-15.711 4.8379,-22.3903 l -425.9532,0.0374 -2.0474,0.0283 z"
       style="fill:#000000;fill-rule:evenodd"
       id="path3819"
       inkscape:connector-curvature="0" />
    <path
       d="m 235.597,192.9555 c 4.614,-3.2415 15.9506,-1.6949 22.8861,-1.6949 56.2249,0 112.4498,0 168.6748,0 l 187.3763,-0.146 c 6.2603,0.584 2.9605,-0.7205 4.3509,2.0651 l 20.984,-1.9242 c -1.5029,5.5542 -4.0113,15.0432 -4.6426,20.2626 l -1.0117,5.62 c -3.651,10.5027 -2.6546,11.3423 -4.1249,19.554 -0.0635,0.3554 -0.1185,0.6259 -0.2013,0.9666 -0.0791,0.3245 -0.1874,0.5904 -0.2823,0.8977 l -7.8673,30.7253 -130.864,0.2064 c -4.316,15.2574 -8.0521,31.5161 -11.8811,46.2089 -3.9373,15.1093 -7.848,30.1607 -11.768,45.1664 l -46.9392,181.9143 c -3.9218,15.9131 -7.9977,29.5608 -11.7907,45.1564 l -8.7611,34.0988 c -0.7849,3.0201 -0.9725,8.0536 -4.3404,10.2668 L 254.982,632.2714 c -1.1398,7.7289 -4.1768,14.993 -5.1329,22.9986 l 277.3539,0.004 c 1.8677,-4.5462 4.5315,-8.2071 7.2561,-12.3103 4.6435,-6.9922 7.9433,-13.5522 12.9745,-19.8244 l 28.5553,-43.8477 c 0.1378,-0.2004 0.3291,-0.4643 0.4692,-0.6636 9.4671,-13.4611 4.9719,-7.6671 11.1985,-9.9 l -3.685,-0.1114 c 0.7945,-1.6656 1.6897,-3.2964 2.6875,-4.9671 l 3.5419,-6.253 c 0.0541,-0.0842 0.2033,-0.3294 0.2653,-0.4107 6.2093,-8.1335 13.2965,-21.0697 15.7714,-21.7148 h 162.6509 c 1.9601,1.025 1.5361,0.415 2.9245,1.7796 0.0397,-5.8417 -1.054,-9.5375 -1.751,-13.8065 -0.7149,-4.3778 -0.9473,-7.6887 -1.5613,-11.8664 l -0.7075,6.9146 H 589.157 c -3.5779,4.6355 -6.7059,9.7554 -10.1327,14.6554 l -51.3023,71.4691 c -3.6167,5.0167 -16.4554,26.6825 -20.6079,27.8722 -12.9758,0 -69.8624,-1.5497 -77.7492,0.7438 -1.3856,0.6333 -0.6335,0.0167 -1.8672,1.4766 l -3.8613,5.957 c -0.2773,0.4765 -5.1888,8.9512 -5.9046,7.7054 -0.1318,-0.2296 -0.5448,0.4025 -0.8167,0.6046 0.5684,-8.871 12.7557,-47.0537 13.9332,-58.9688 -1.5273,-0.2101 -1.2246,2.4579 1.9871,-4.8804 l 14.3674,-56.6694 5.6973,-1.0823 -5.0556,0.1018 c 1.1603,-9.3025 5.4712,-21.9895 7.8503,-31.1803 2.6549,-10.2571 4.3767,-20.198 7.8667,-30.3261 3.8758,-0.6914 4.4552,0.0844 7.4829,-1.5027 l -7.0115,0.0731 c 2.1212,-11.4636 5.3844,-22.7503 8.3458,-33.453 2.9486,-10.6557 5.1468,-22.6721 8.5827,-31.8563 0.1177,-5.22 11.8914,-47.3256 14.2501,-57.0464 l 14.887,-56.6981 c 28.9167,-0.003 109.6472,1.1781 132.7512,-0.1329 l 10.6515,-47.8647 c 3.1615,-15.2195 7.8891,-31.6349 10.3479,-46.8998 l -427.5709,0.0856 z"
       style="fill:#000000;fill-rule:evenodd"
       id="path3821"
       inkscape:connector-curvature="0" />
    <path
       d="m 1334.2175,192.8183 c -3.5379,4.2709 -11.3896,49.0118 -14.5698,58.3313 l -127.5131,0.131 c -4.9263,12.3746 -17.8322,67.68 -23.0975,87.5874 l -44.86,174.2372 c -2.429,10.0176 -4.6774,18.5794 -7.4565,28.8657 -5.203,19.2558 -9.3597,37.8939 -14.6214,57.5144 -5.6361,21.0175 7.3516,16.5858 -56.1022,16.5858 -9.2001,0 -67.0802,1.5395 -70.9554,-1.0961 -1.3964,2.0015 -0.6679,-0.0176 -1.7028,3.7267 -0.1335,0.4827 -0.5899,3.1802 -0.9051,4.4036 -0.6471,2.5118 -1.6948,5.8467 -2.0812,9.616 l 141.8635,-0.4363 c 1.9437,-7.1237 3.466,-15.5588 5.6129,-22.5085 l 89.0374,-340.4786 129.3826,-0.007 c 2.8697,-5.527 16.0146,-67.0425 18.6199,-78.018 z"
       style="fill:#3f3f3f;fill-rule:evenodd"
       id="path3823"
       inkscape:connector-curvature="0" />
    <path
       d="m 618.8851,193.1797 c -2.0999,2.8142 -12.2403,50.2702 -14.1976,57.9662 l -127.6203,0.2917 c -4.8733,13.4578 -8.9399,31.4138 -12.2443,45.697 l -23.6109,91.3465 c -11.5001,40.4359 -24.5052,95.6911 -35.0053,136.8879 l -24.1418,90.2928 c -7.1521,1.8635 -118.6452,1.1296 -123.355,-0.6698 -0.7812,6.4383 -2.2329,11.0083 -3.7279,17.2794 l 140.4125,0.0283 c 3.3679,-2.2132 3.5555,-7.2467 4.3404,-10.2668 l 8.7611,-34.0988 c 3.793,-15.5956 7.8689,-29.2433 11.7907,-45.1564 l 46.9392,-181.9143 c 3.92,-15.0057 7.8307,-30.0571 11.768,-45.1664 3.829,-14.6928 7.5651,-30.9515 11.8811,-46.2089 l 130.864,-0.2064 7.8673,-30.7253 c 0.0949,-0.3073 0.2032,-0.5732 0.2823,-0.8977 0.0828,-0.3407 0.1378,-0.6112 0.2013,-0.9666 1.4703,-8.2117 0.4739,-9.0513 4.1249,-19.554 l 1.0117,-5.62 c 0.6313,-5.2194 3.1397,-14.7084 4.6426,-20.2626 z"
       style="fill:#3f3f3f;fill-rule:evenodd"
       id="path3825"
       inkscape:connector-curvature="0" />
    <path
       d="m 1747.8839,361.8567 c -0.3234,0.5224 -0.7396,0.9008 -1.3632,2.5892 l -2.9676,13.3469 c -4.4509,24.664 -12.6975,55.2404 -17.9019,80.9484 -8.5629,42.294 -19.3739,85.8112 -28.2435,126.9816 -1.7317,8.0385 -4.0255,22.9354 -7.38,30.2426 l -116.3968,-0.0114 c -0.076,-4.7256 6.0857,-24.9789 6.1886,-29.3 -3.422,0.015 -1.6132,-1.2246 -5.0298,5.7592 -12.0212,24.5704 -38.5467,23.756 -60.0086,23.756 -31.3983,0 -62.7965,0 -94.195,0 -30.5051,0 -65.3825,2.3488 -91.9681,-4.1448 -13.794,-3.369 -17.2953,-9.4598 -22.3571,-12.5972 -5.0046,-3.1017 -2.5651,-1.4063 -5.9259,-5.9448 -6.3564,-8.5842 -13.1808,-21.3021 -13.1808,-34.4781 -2.0188,3.0053 -1.5693,1.8128 -1.578,8.0725 -1.0931,-3.6 0.1043,-3.257 -2.039,-6.158 -1.8505,5.3243 0.3274,10.0293 -0.885,12.4263 -0.121,0.2392 -0.4626,0.5924 -0.5865,0.7925 -0.1374,0.222 -1.4408,1.6918 -1.6713,1.9744 4.2843,-0.2702 2.5929,-3.6601 4.0541,3.6311 0.9564,4.7722 -0.035,4.123 1.9097,7.7857 l 8.9303,17.5011 c 2.6722,5.347 6.3077,8.0266 10.8584,12.1949 5.9304,5.4321 -0.7498,0.7243 7.85,5.1585 1.9261,0.9933 3.0566,1.8587 4.894,2.8536 21.5524,11.6708 54.1851,7.0518 83.0752,7.0518 23.6092,0 298.9755,1.3578 301.9023,-0.519 l 25.6544,-102.9022 c 10.6458,-43.4024 21.9075,-93.3956 32.9575,-135.1919 3.1009,-11.7284 5.1996,-22.6959 8.392,-33.3941 -4.8662,-0.015 -19.8088,-1.7493 -22.9884,1.5752 z"
       style="fill:#3f3f3f;fill-rule:evenodd"
       id="path3829"
       inkscape:connector-curvature="0" />
    <path
       d="m 1779.893,193.1451 -9.9828,42.5106 c -1.0845,5.6823 -2.0914,10.194 -3.3528,15.4222 -79.9092,0 -159.8187,0 -239.728,0 -40.9957,0 -38.834,-3.0464 -47.3456,33.5713 -2.3409,10.07 -5.5335,20.8732 -8.1051,31.4815 -1.4185,5.8516 -2.8092,9.7081 -4.0808,15.437 l -49.7242,192.0687 c -1.6169,6.1047 -3.6119,11.0855 -3.9328,17.5028 0.7189,11.1986 2.0883,18.2081 14.6123,19.2323 2.3936,-5.0885 3.1,-10.842 4.5278,-16.1802 0.077,-0.2886 0.1403,-0.5751 0.2183,-0.8651 l 8.4237,-31.8079 c 0.075,-0.2897 0.1553,-0.5791 0.227,-0.8722 0.073,-0.2968 0.1594,-0.5879 0.2265,-0.8847 l 11.5064,-46.3172 c 0.066,-0.3008 0.1341,-0.6137 0.2002,-0.904 l 1.8399,-7.2833 c 0.075,-0.296 0.1375,-0.5919 0.2163,-0.8932 0.079,-0.3039 0.1454,-0.5925 0.2293,-0.8978 l 21.9425,-85.4305 c 0.088,-0.3099 0.4334,-1.2427 0.536,-1.5775 l 15.6676,-59.8147 c 0.5103,-2.5552 0.1148,-2.1784 0.5276,-4.8799 l 6.362,-24.3932 c 1.9758,-4.8972 5.1359,-7.8557 12.7197,-8.1261 45.7032,-1.6291 261.0119,1.8873 268.408,0.0539 2.8953,-0.7178 3.9631,-6.5994 4.9677,-10.1866 l 0.8184,-5.7833 c 0.1091,-0.3223 0.6137,-1.2526 0.7237,-1.6117 l 8.2165,-36.2892 c 0.5698,-2.2399 0.1417,-0.773 0.447,-2.9508 1.0058,-7.1717 2.7893,-14.5574 4.663,-21.2208 z"
       style="fill:#3f3f3f;fill-rule:evenodd"
       id="path3831"
       inkscape:connector-curvature="0" />
    <path
       d="m 2394.6301,198.6812 c 2.2553,-2.5427 1.2476,-3.0158 2.3259,-6.2201 l 372.3638,3e-4 c -1.2577,2.6685 0.099,0.4161 -1.7934,3.3162 l -56.0231,63.347 c -5.5398,4.9048 -4.1902,4.9017 -7.9141,8.5218 l -52.0166,59.6605 c -5.9941,5.2588 -2.3337,3.4563 -7.8582,8.5657 -5.5409,5.1248 -11.5548,13.951 -15.5284,17.3872 l -91.5758,103.4271 c -2.1048,2.1447 -2.9138,3.75 -4.9726,5.9182 l -9.8138,11.0072 c -3.9305,3.2808 -1.819,2.7882 -4.6443,6.3063 -1.6052,1.9987 -3.6261,3.4562 -5.4124,5.4283 -1.577,1.741 -2.3925,3.2255 -3.9841,4.8679 -2.4537,2.5325 -2.7394,3.1065 -5.0786,5.9406 -11.8018,14.2971 -40.3517,43.3664 -51.7963,57.7684 -5.391,6.7839 -3.9924,4.2511 -2.1495,5.3555 l 34.2592,-0.3963 c 8.6559,-13.1669 61.3973,-68.3263 73.3768,-85.6508 l 132.8196,-153.1281 c 2.9843,-3.8583 7.0239,-7.7877 10.4167,-11.5073 2.7579,-3.024 1.4905,-3.0586 3.8928,-5.9604 12.6633,-15.2957 45.4476,-50.0613 55.2626,-63.0082 2.9486,-3.8894 6.5942,-7.5501 9.794,-11.0361 2.9942,-3.2624 1.5046,-3.761 4.5207,-6.4404 3.6482,-3.2408 23.0363,-25.1384 25.0608,-29.9046 -3.5697,0 -23.0533,1.173 -25.6414,-0.9516 l -376.9262,-0.2826 z"
       style="fill:#3f3f3f;fill-rule:evenodd"
       id="path3833"
       inkscape:connector-curvature="0" />
    <path
       d="m 2645.6803,609.9639 -376.8605,2.1311 0.1494,24.1942 h 369.5799 c 23.1135,0 23.4202,2.4645 25.2216,-5.4314 1.9063,-8.3566 4.6088,-14.9454 7.2657,-23.5194 2.5385,-8.1927 4.582,-15.4139 7.1331,-23.3115 l 7.1246,-24.8565 -24.1886,0.6236 c -1.8793,7.422 -5.0419,16.8489 -7.715,24.7802 -1.5506,4.6009 -2.7933,7.5084 -4.0385,12.1434 -1.2354,4.5978 -2.9526,8.7185 -3.6717,13.2463 z"
       style="fill:#3f3f3f;fill-rule:evenodd"
       id="path3837"
       inkscape:connector-curvature="0" />
    <path
       d="m 2087.9989,615.3086 1.5284,11.2918 c 0.9079,3.9113 -0.6735,-2.1078 0.5202,1.9168 0.07,0.235 0.3302,1.0375 0.3855,0.8838 0.055,-0.1544 0.2701,0.586 0.4206,0.8711 l 0.9403,2.0166 h 155.0735 c -7.2527,-29.7675 -15.1367,-78.6609 -21.5557,-110.4559 -5.9582,-29.5132 -17.373,-83.2584 -21.4915,-110.0421 l -10.7736,-54.9757 c -3.9269,-18.4847 -6.787,-36.7328 -10.772,-54.9748 l -21.414,-109.6186 -17.2318,0.4266 c 2.3403,8.1244 3.778,18.7991 5.4558,27.129 l 68.8261,344.1112 c 1.7246,8.8977 10.2245,46.77 10.1664,52.0206 -18.083,0.5031 -129.4038,1.0275 -140.0782,-0.6004 z"
       style="fill:#3f3f3f;fill-rule:evenodd"
       id="path3839"
       inkscape:connector-curvature="0" />
    <path
       d="m 783.6171,615.5535 c 0.239,4.7118 1.4292,9.3855 1.9803,13.0555 0.3912,2.6042 0.4507,3.3188 0.7937,5.7019 0.5723,3.9762 -1.0142,3.8512 1.8326,4.8495 l -0.2262,-6.8694 153.8603,-0.007 c -2.4846,-7.9654 -3.545,-18.7356 -5.3436,-27.4782 L 893.497,384.7748 c -1.8496,-9.3543 -3.645,-18.8087 -5.4317,-27.7642 l -32.199,-164.7635 c -2.7264,0 -5.4414,-0.0661 -8.1539,-0.0822 -6.2779,-0.0374 -5.1545,0.0935 -7.1047,2.1574 0.0683,5.0704 1.3847,8.983 2.5234,14.3102 0.9189,4.2987 1.5043,8.3406 2.3788,12.7221 8.0141,40.1551 78.8709,390.5207 78.584,394.7281 z"
       style="fill:#3f3f3f;fill-rule:evenodd"
       id="path3841"
       inkscape:connector-curvature="0" />
    <path
       d="m 1745.7077,613.8454 c -0.7304,0.7217 -1.0386,0.7083 -1.8969,1.9017 l -9.845,15.7519 c 6.0803,2.3468 66.4254,0.7897 78.7343,0.7897 1.2549,-0.4819 3.9081,-2.8128 5.0357,-5.3847 4.6579,-10.6231 4.8305,-4.7098 8.1522,-11.3851 5.7109,-11.4766 2.6745,-1.881 7.7575,-11.7683 3.0586,-5.9496 5.0386,-5.2971 7.0376,-9.7169 4.1026,-9.07 0.79,-0.7906 4.7115,-7.0115 l 6.4573,-8.8594 c 1.2878,-1.7614 -0.044,-0.8903 1.8326,-3.7479 1.9227,-2.9277 1.8879,-0.764 4.6276,-5.0715 0.1516,-0.2387 0.297,-0.5199 0.4393,-0.7668 l 0.7983,-1.5587 c 2.9026,-5.6433 2.7224,-3.2627 4.7367,-6.2672 0.1442,-0.2148 0.2877,-0.5079 0.4192,-0.7304 l 9.1894,-14.6761 c 2.645,-3.8832 18.1196,-26.5284 20.952,-27.0479 l 178.4976,-0.2983 c 0.2373,3.7089 -0.3745,2.8823 1.2413,5.1767 l -4.6885,-28.1696 -188.1082,0.1468 -61.6445,91.6305 c -2.2887,2.9585 -0.9899,0.5259 -3.1051,3.6156 -1.629,2.3797 -0.847,1.772 -2.2376,4.2976 l -15.2453,21.2738 -42.7179,2e-4 c -4.4878,0.0136 -9.5728,1.5084 -11.1311,-2.1242 z"
       style="fill:#3f3f3f;fill-rule:evenodd"
       id="path3843"
       inkscape:connector-curvature="0" />
    <path
       d="m 441.7869,614.6889 c -2.9662,2.456 -4.2001,5.0134 -6.3675,8.0833 -2.3071,3.2681 -4.8146,5.279 -6.0545,10.2603 7.8868,-2.2935 64.7734,-0.7438 77.7492,-0.7438 4.1525,-1.1897 16.9912,-22.8555 20.6079,-27.8722 l 51.3023,-71.4691 c 3.4268,-4.9 6.5548,-10.0199 10.1327,-14.6554 h 178.6363 l 0.7075,-6.9146 c -1.0142,-5.7795 -2.0622,-11.0233 -2.685,-16.2807 h -188.877 c -10.2109,14.2789 -30.2629,47.2918 -40.1629,60.3669 l -40.6148,60.4868 c -6.2235,0.2661 -53.2364,1.2407 -54.3742,-1.2615 z"
       style="fill:#3f3f3f;fill-rule:evenodd"
       id="path3845"
       inkscape:connector-curvature="0" />
    <path
       d="m 2799.9763,238.4626 -1.7952,2.194 c -1.1203,1.086 -1.3292,1.0434 -2.4015,1.982 l -34.5827,39.8316 c -4.1545,5.218 -21.4572,22.5283 -22.8926,26.5192 l 5.6778,0.5165 c 12.4959,0.7532 48.2017,-3.0022 64.2997,-3.9373 l 45.0345,-2.8593 c 10.4148,-0.9848 28.0398,0.0243 36.7192,-2.9313 v -66.0671 c -8.0555,-2.5438 -80.7752,6.7946 -90.0592,4.7517 z"
       style="fill:#11c44d;fill-rule:evenodd"
       id="path3847"
       inkscape:connector-curvature="0" />
    <path
       d="m 916.7649,369.2752 -5.8152,0.8538 c 0.0734,5.1937 2.0591,11.6207 2.8233,16.4509 1.4006,8.8537 7.6484,42.8173 9.7886,47.2847 l 92.973,-7.0769 c 5.0612,0.3863 3.5379,-0.6588 3.683,3.1303 l 16.6017,-68.9525 -8.0978,-0.1018 -84.8596,5.811 c -4.6848,0.6764 -10.0777,0.4556 -14.2248,1.0307 -7.0872,0.9828 -10.7311,-1.3935 -12.8722,1.5698 z"
       style="fill:#11c44d;fill-rule:evenodd"
       id="path3851"
       inkscape:connector-curvature="0" />
    <path
       d="m 1216.0933,413.1045 -24.1086,2.3089 c -3.6207,9.7758 -9.2999,39.5047 -12.8308,47.6248 -0.712,1.6373 -1.9905,0.2682 -0.3075,0.87 l 0.1292,5.0998 c 20.1076,-3.4937 42.8681,-2.7439 63.6503,-5.9715 l 64.5967,-5.5445 c 1.2924,-8.6349 4.2401,-16.9135 6.3703,-25.5844 1.1608,-4.7251 2.007,-8.7046 3.2656,-13.0261 0.7701,-2.6435 1.0403,-3.2037 1.7869,-5.8708 l 0.6747,-4.1556 c -1.1518,-3.727 0.3109,-1.3496 -1.6912,-1.9528 z"
       style="fill:#ed1e1e;fill-rule:evenodd"
       id="path3853"
       inkscape:connector-curvature="0" />
    <path
       d="m 480.9614,399.0317 c -3.4359,9.1842 -5.6341,21.2006 -8.5827,31.8563 -2.9614,10.7027 -6.2246,21.9894 -8.3458,33.453 l 7.0115,-0.0731 39.2394,-2.4593 c 5.8,-0.546 34.1272,-3.5878 37.3051,-2.0047 L 594.705,390.956 c -9.3668,0 -19.5129,1.9381 -28.4239,1.9449 -16.1504,0.0122 -72.9014,6.3448 -85.3197,6.1308 z"
       style="fill:#11c44d;fill-rule:evenodd"
       id="path3855"
       inkscape:connector-curvature="0" />
    <path
       d="m 1810.764,373.3673 c -2.2907,1.0392 -16.8644,1.8199 -20.9169,2.1141 -2.1058,6.8349 -3.8607,14.8102 -5.6644,22.2582 -1.7739,7.3256 -4.0961,14.8309 -5.298,21.7483 l 4.7622,-0.0695 99.2089,-7.3324 c 4.1741,-1.3025 3.2726,-1.4456 5.7439,-5.3878 l 12.153,-17.5478 c 2.5758,-3.9008 5.239,-7.6661 7.9832,-11.6779 2.6739,-3.909 5.652,-7.7763 7.1801,-11.5144 z"
       style="fill:#ed1e1e;fill-rule:evenodd"
       id="path3857"
       inkscape:connector-curvature="0" />
    <path
       d="m 2378.0157,265.9085 c 11.5058,1.5823 188.4419,0.9796 192.7982,-0.2673 2.9488,-1.446 1.1429,-0.0647 3.2442,-2.6757 l 14.8683,-17.3415 c -7.7275,-1.8929 -191.0526,-0.6097 -204.5917,-0.6619 l 0.2435,-4.5198 c -1.868,2.757 -5.8476,20.6079 -6.5625,25.4662 z"
       style="fill:#3f3f3f;fill-rule:evenodd"
       id="path3859"
       inkscape:connector-curvature="0" />
    <path
       d="m 587.6566,568.7277 c 17.1389,-0.5394 75.439,-7.3672 93.4436,-9.3322 l 92.2441,-9.4527 -1.5312,-12.8925 c -1.3884,-1.3646 -0.9644,-0.7546 -2.9245,-1.7796 H 606.2377 c -2.4749,0.6451 -9.5621,13.5813 -15.7714,21.7148 -0.062,0.0813 -0.2112,0.3265 -0.2653,0.4107 l -3.5419,6.253 c -0.9978,1.6707 -1.893,3.3015 -2.6875,4.9671 z"
       style="fill:#11c44d;fill-rule:evenodd"
       id="path3861"
       inkscape:connector-curvature="0" />
    <path
       d="m 2355.7527,270.0428 21.1036,-0.7722 c -0.4759,6.9282 -2.8216,11.6856 -4.0019,18.997 h 178.204 c 0.551,-0.2577 18.9204,-19.753 19.7555,-22.6264 -4.3563,1.2469 -181.2924,1.8496 -192.7982,0.2673 l -0.2497,2.3533 c -2.9223,0.0876 -20.9427,1.4153 -22.0133,1.781 z"
       style="fill:#000000;fill-rule:evenodd"
       id="path3863"
       inkscape:connector-curvature="0" />
    <path
       d="m 1922.5429,438.7844 28.3192,0.6064 c 2.1087,-5.5432 15.6291,-24.524 20.0395,-30.3659 l 35.6409,-52.0177 c 4.9654,-8.729 14.8635,-21.6119 21.0654,-30.4538 1.7617,-2.5114 3.1093,-5.6264 4.9975,-7.8811 -1.571,-6.7105 -4.4513,-25.2927 -7.3645,-30.2091 -2.9735,2.016 -6.1061,8.5566 -12.5753,17.8081 z"
       style="fill:#3f3f3f;fill-rule:evenodd"
       id="path3865"
       inkscape:connector-curvature="0" />
    <path
       d="m 619.8494,437.2464 c -0.1103,3.9373 -0.3311,0.8801 1.175,2.0925 h 23.0009 c 3.1147,-0.79 18.6704,-26.3659 20.9338,-29.6107 l 51.181,-74.6915 c 5.3983,-7.7613 7.5084,-12.7933 12.3494,-13.3379 l -2.0177,4.3929 3.2992,-0.0403 c -2.9945,-13.8483 -4.6678,-24.9514 -8.1252,-37.796 -4.2021,3.7205 -13.0105,17.9263 -16.9489,24.2612 -6.5203,10.4867 -22.1491,30.5144 -27.2268,39.7179 z"
       style="fill:#3f3f3f;fill-rule:evenodd"
       id="path3867"
       inkscape:connector-curvature="0" />
    <path
       d="m 619.8494,437.2464 -1.9006,2.8496 135.8546,0.1593 -1.2571,-3.3913 c -0.5851,3.0038 1.1508,0.7957 -1.1826,2.4261 l -75.5193,-0.07 c 2.4197,-6.2776 31.8881,-48.4976 34.761,-54.9391 5.1015,-0.0176 5.0664,0.5774 7.9452,-0.9266 l -6.6041,-0.019 c 2.056,-4.3951 18.1156,-27.1639 20.6198,-32.9641 0.2083,0.1899 1.3705,0.7248 2.302,1.9905 -0.1225,-8.2151 -4.2236,-18.203 -5.0973,-26.3104 l -3.2992,0.0403 2.0177,-4.3929 c -4.841,0.5446 -6.9511,5.5766 -12.3494,13.3379 l -51.181,74.6915 c -2.2634,3.2448 -17.8191,28.8207 -20.9338,29.6107 h -23.0009 c -1.5061,-1.2124 -1.2853,1.8448 -1.175,-2.0925 z"
       style="fill:#000000;fill-rule:evenodd"
       id="path3871"
       inkscape:connector-curvature="0" />
    <path
       d="m 1922.5429,438.7844 c -0.8501,1.7521 -0.508,0.3263 0.7815,1.4579 l 135.5017,-0.1032 -0.9434,-2.4392 c -0.6426,1.9964 0.1554,0.8416 -2.0281,1.5871 h -75.0275 l 22.089,-36.4946 6.1243,-1.5109 -3.7406,-0.1584 c 2.4993,-6.9611 9.2483,-14.4783 13.0062,-21.4356 4.2735,-7.9121 9.4606,-14.15 13.6516,-21.3333 l 6.1901,0.1687 c 3.8812,0.9144 2.2694,5.6582 4.6281,10.817 -0.1803,-7.8596 -3.6048,-18.6375 -4.8994,-25.2485 -1.5007,-7.6629 -4.5264,-17.7814 -5.271,-25.4191 -1.8882,2.2547 -3.2358,5.3697 -4.9975,7.8811 -6.2019,8.8419 -16.1,21.7248 -21.0654,30.4538 l -35.6409,52.0177 c -4.4104,5.8419 -17.9308,24.8227 -20.0395,30.3659 z"
       style="fill:#000000;fill-rule:evenodd"
       id="path3873"
       inkscape:connector-curvature="0" />
    <path
       d="m 718.5506,383.3544 c -2.8788,1.504 -2.8437,0.909 -7.9452,0.9266 -2.8729,6.4415 -32.3413,48.6615 -34.761,54.9391 l 75.5193,0.07 c 2.3334,-1.6304 0.5975,0.5777 1.1826,-2.4261 -0.3135,-5.2943 -1.7476,-8.9944 -2.7964,-14.5429 -1.0247,-5.423 -2.2088,-9.9873 -3.2488,-15.1072 -1.7169,-8.453 -4.5091,-24.8103 -7.0149,-30.5507 l 0.1485,4.2412 c -5.5162,0.002 -6.0001,0.993 -11.2286,1.023 -3.7006,0.0213 -8.1467,-0.9706 -9.8555,1.427 z"
       style="fill:#11c44d;fill-rule:evenodd"
       id="path3875"
       inkscape:connector-curvature="0" />
    <path
       d="m 939.8682,487.3226 c -2.8486,1.4451 -2.0322,0.946 -6.0234,0.946 l 7.8466,42.0417 3.7877,0.8303 c 4.3509,-1.0809 18.9419,-2.1368 23.9074,-2.4874 7.0432,-0.4975 18.6698,-1.8184 26.1337,-3.1374 v 3.6907 c 2.2799,-5.1069 4.9011,-17.5513 6.2059,-23.8663 1.5403,-7.4554 4.5042,-15.476 5.4147,-23.6534 -5.114,0 -65.2238,4.8745 -67.2726,5.6358 z"
       style="fill:#11c44d;fill-rule:evenodd"
       id="path3877"
       inkscape:connector-curvature="0" />
    <path
       d="m 1608.1688,437.0757 4.3353,-19.62 c -2.4429,1.249 -2.7771,0.8952 -6.7814,0.834 l -131.8997,-0.0323 c -0.9598,3.4506 -1.353,5.8558 -2.3822,9.5527 -1.2416,4.4606 -2.3451,3.721 -1.7181,6.0083 0.4694,1.7133 0.8518,1.7946 1.2469,2.4826 l 132.5929,0.0388 c 2.7946,-0.282 -0.7889,0.3016 2.0128,-0.3308 z"
       style="fill:#3f3f3f;fill-rule:evenodd"
       id="path3879"
       inkscape:connector-curvature="0" />
    <path
       d="m 452.9001,527.1752 -5.6973,1.0823 -14.3674,56.6694 23.8799,-2.4554 c 8.7729,-0.7135 4.6528,-1.3229 6.6254,0.7217 8.4994,-10.8 38.6059,-57.7741 42.946,-61.4217 -6.4862,2.6493 -27.976,2.7372 -39.5804,4.0771 -3.6482,0.4212 -10.0698,0.5737 -13.8062,1.3266 z"
       style="fill:#11c44d;fill-rule:evenodd"
       id="path3881"
       inkscape:connector-curvature="0" />
    <path
       d="m 338.5086,287.0614 c 1.5284,-2.1597 1.563,-2.044 2.3694,-5.4226 0.5576,-2.3346 0.711,-3.5017 1.2958,-6.3105 0.9093,-4.3659 2.2921,-8.4269 2.9863,-13.1531 -2.7176,3.7426 0.6925,1.3774 -3.4379,2.8775 l -121.8855,1.2362 c 0.1701,-3.9889 3.9722,-15.1951 2.3099,-15.876 -1.1976,8.1782 -8.1623,27.2191 -8.2975,35.4844 l 123.4919,-1.8712 c 1.9165,1.9369 0.7132,0.108 1.1676,3.0353 z"
       style="fill:#000000;fill-rule:evenodd"
       id="path3883"
       inkscape:connector-curvature="0" />
    <path
       d="m 1055.0203,287.3237 c 1.3753,-3.9082 4.6269,-17.2551 4.9481,-21.4535 -41.1899,-0.8768 -81.6695,0.4187 -123.5007,0.4187 -0.2194,-0.2206 -0.5371,-0.521 -0.6636,-0.6562 l -1.0916,-1.1812 c -0.1355,-0.152 -0.4983,-0.6645 -0.7061,-0.9644 -0.2891,2.5589 -2.0322,7.3647 -2.8185,10.607 -1.1256,4.6409 -2.2734,6.8272 -2.3136,12.0688 8.7208,-3.1553 47.5781,0.5116 61.2629,-1.1081 18.2234,-2.1572 43.3431,-0.7784 62.4314,-0.7784 3.3375,1.0137 1.3507,-0.589 2.4517,3.0473 z"
       style="fill:#000000;fill-rule:evenodd"
       id="path3885"
       inkscape:connector-curvature="0" />
    <path
       d="m 934.0064,263.4871 c 0.2078,0.2999 0.5706,0.8124 0.7061,0.9644 l 1.0916,1.1812 c 0.1265,0.1352 0.4442,0.4356 0.6636,0.6562 41.8312,0 82.3108,-1.2955 123.5007,-0.4187 l 5.3099,-18.8025 -125.5247,0.006 -0.8504,-1.8394 c -1.8978,2.4749 -4.3081,15.0933 -4.8968,18.2525 z"
       style="fill:#3f3f3f;fill-rule:evenodd"
       id="path3887"
       inkscape:connector-curvature="0" />
    <path
       d="m 222.1466,250.4129 c 1.6623,0.6809 -2.1398,11.8871 -2.3099,15.876 l 121.8855,-1.2362 c 4.1304,-1.5001 0.7203,0.8651 3.4379,-2.8775 l 3.8596,-14.3467 c -7.2646,-2.0831 -51.1007,-0.7526 -62.0589,-0.7526 -19.5877,0 -43.3669,1.2033 -62.4316,-0.2092 l -0.658,-1.3011 c -1.9539,0 -1.3685,2.1949 -1.7246,4.8473 z"
       style="fill:#3f3f3f;fill-rule:evenodd"
       id="path3891"
       inkscape:connector-curvature="0" />
    <path
       d="m 2009.0404,401.2815 c 11.7521,-0.2123 23.2135,-1.099 34.9424,-2.3817 l 2.9695,-1.269 c 2.291,-0.9831 0.6058,0.0952 2.1949,-1.1583 -2.6076,-5.3033 -3.8605,-19.3016 -6.3714,-27.1326 -2.3587,-5.1588 -0.7469,-9.9026 -4.6281,-10.817 l -6.1901,-0.1687 c -4.191,7.1833 -9.3781,13.4212 -13.6516,21.3333 -3.7579,6.9573 -10.5069,14.4745 -13.0062,21.4356 z"
       style="fill:#ed1e1e;fill-rule:evenodd"
       id="path3893"
       inkscape:connector-curvature="0" />
    <path
       d="m 1477.7527,474.664 c 4.6615,0.0226 8.7675,0.0774 12.5951,-0.5406 6.1651,-0.9955 7.9833,0.6369 11.9433,-1.9097 l 5.0859,-2.3394 v -17.3228 l -28.6892,-0.2705 c -2.243,6.0988 -3.496,15.7286 -5.739,22.0388 z"
       style="fill:#11c44d;fill-rule:evenodd"
       id="path3897"
       inkscape:connector-curvature="0" />
  </g>
</svg>
