<?xml version="1.0" encoding="UTF-8" standalone="no"?>
<!-- Generator: Adobe Illustrator 16.0.0, SVG Export Plug-In . SVG Version: 6.00 Build 0)  -->

<svg
   xmlns:dc="http://purl.org/dc/elements/1.1/"
   xmlns:cc="http://creativecommons.org/ns#"
   xmlns:rdf="http://www.w3.org/1999/02/22-rdf-syntax-ns#"
   xmlns:svg="http://www.w3.org/2000/svg"
   xmlns="http://www.w3.org/2000/svg"
   xmlns:sodipodi="http://sodipodi.sourceforge.net/DTD/sodipodi-0.dtd"
   xmlns:inkscape="http://www.inkscape.org/namespaces/inkscape"
   version="1.1"
   id="Layer_1"
   x="0px"
   y="0px"
   width="32px"
   height="32px"
   viewBox="0 0 32 32"
   enable-background="new 0 0 32 32"
   xml:space="preserve"
   sodipodi:docname="1495367847.svg"
   inkscape:version="0.92.1 r15371"><metadata
     id="metadata4491"><rdf:RDF><cc:Work
         rdf:about=""><dc:format>image/svg+xml</dc:format><dc:type
           rdf:resource="http://purl.org/dc/dcmitype/StillImage" /></cc:Work></rdf:RDF></metadata><defs
     id="defs4489" /><sodipodi:namedview
     pagecolor="#ffffff"
     bordercolor="#666666"
     borderopacity="1"
     objecttolerance="10"
     gridtolerance="10"
     guidetolerance="10"
     inkscape:pageopacity="0"
     inkscape:pageshadow="2"
     inkscape:window-width="1302"
     inkscape:window-height="746"
     id="namedview4487"
     showgrid="false"
     inkscape:zoom="18.03125"
     inkscape:cx="16"
     inkscape:cy="16"
     inkscape:window-x="-8"
     inkscape:window-y="-8"
     inkscape:window-maximized="1"
     inkscape:current-layer="Layer_1" /><rect
     style="fill:#deaa87;fill-opacity:1;fill-rule:evenodd;stroke:none;stroke-width:8.30000019;stroke-miterlimit:4;stroke-dasharray:none;stroke-opacity:1"
     id="rect4493"
     width="32.11092"
     height="32.055458"
     x="0"
     y="0" /><path
     id="mail"
     d="M 24.999999,7 H 6.9999999 C 5.34325,7 4,8.536 4,10.428571 V 21.571428 C 4,23.464857 5.34325,25 6.9999999,25 H 24.999999 C 26.656749,25 28,23.464857 28,21.571428 V 10.428571 C 28,8.536 26.656749,7 24.999999,7 Z M 5.5,11.5 10.749249,16 5.5,20.5 Z m 20.999998,10.071428 c 0,0.946286 -0.673499,1.714287 -1.499999,1.714287 H 6.9999999 C 6.1727501,23.285715 5.5,22.517714 5.5,21.571428 l 5.873998,-5.035714 3.276001,2.808858 c 0.399751,0.341142 0.874501,0.514285 1.349999,0.514285 0.474751,0 0.949501,-0.172286 1.349251,-0.514285 L 20.626,16.535714 Z m 0,-1.071428 -5.249999,-4.5 5.249999,-4.5 z M 16.89925,18.658857 c -0.261752,0.224571 -0.572251,0.342857 -0.899252,0.342857 -0.326999,0 -0.638249,-0.119143 -0.9,-0.342857 L 11.998749,16 11.373998,15.464285 5.5,10.429428 v -8.57e-4 C 5.5,9.4831428 6.1727501,8.7142857 6.9999999,8.7142857 H 24.999999 c 0.8265,0 1.499999,0.7688571 1.499999,1.7142853 z"
     inkscape:connector-curvature="0"
     style="display:inline;fill:#ffffff;stroke-width:0.8017838" /></svg>